<?xml version="1.0" encoding="UTF-8"?>
<svg xmlns="http://www.w3.org/2000/svg" viewBox="0 0 320 180" role="img" aria-hidden="true">
  <defs>
    <linearGradient id="g" x1="0" y1="0" x2="1" y2="1">
      <stop offset="0%" stop-color="#0b2a4a"/>
      <stop offset="100%" stop-color="#1c7ed6"/>
    </linearGradient>
  </defs>
  <rect width="320" height="180" fill="url(#g)"/>
  <g transform="translate(70,42)">
      <rect x="0" y="0" width="30" height="30" rx="5" fill="#868e96" opacity="0.95"/><rect x="36" y="0" width="30" height="30" rx="5" fill="#f1c40f" opacity="0.95"/><rect x="72" y="0" width="30" height="30" rx="5" fill="#2f9e44" opacity="0.95"/><rect x="108" y="0" width="30" height="30" rx="5" fill="#f1c40f" opacity="0.95"/><rect x="144" y="0" width="30" height="30" rx="5" fill="#868e96" opacity="0.95"/>
      <rect x="0" y="40" width="30" height="30" rx="5" fill="#868e96" opacity="0.9"/><rect x="36" y="40" width="30" height="30" rx="5" fill="#2f9e44" opacity="0.9"/><rect x="72" y="40" width="30" height="30" rx="5" fill="#868e96" opacity="0.9"/><rect x="108" y="40" width="30" height="30" rx="5" fill="#2f9e44" opacity="0.9"/><rect x="144" y="40" width="30" height="30" rx="5" fill="#868e96" opacity="0.9"/>
      <rect x="0" y="80" width="30" height="30" rx="5" fill="#4dabf7" opacity="0.85"/><rect x="36" y="80" width="30" height="30" rx="5" fill="#4dabf7" opacity="0.85"/><rect x="72" y="80" width="30" height="30" rx="5" fill="#4dabf7" opacity="0.85"/><rect x="108" y="80" width="30" height="30" rx="5" fill="#4dabf7" opacity="0.85"/><rect x="144" y="80" width="30" height="30" rx="5" fill="#4dabf7" opacity="0.85"/>
    </g>
</svg>